# xmcd
#
# Track frame offsets:
#	150
#	14748
#	31299
#	44827
#	58941
#	73386
#	86397
#	101391
#	113869
#	130904
#	144103
#	155098
#	171111
#	182400
#	198209
#	212815
#	230142
#	249820
#	267251
#
# Disc length: 3712 seconds
#
# Revision: 1
# Processed by: cddbd v1.5.2PL0 Copyright (c) Steve Scherf et al.
# Submitted via: audiograbber 1.83.01
#
DISCID=130e7e13
DTITLE=Alan Jackson - 34 Number Ones [CD 1)
DYEAR=2010
DGENRE=Country
TTITLE0=Ring Of Fire
TTITLE1=Here In The Real World
TTITLE2=Wanted
TTITLE3=Chasin' That Neon Rainbow
TTITLE4=I'd Love All Over Again
TTITLE5=Don't Rock The Jukebox
TTITLE6=Someday
TTITLE7=Dallas
TTITLE8=Midnight In Montgomery
TTITLE9=Love's Got A Hold On You
TTITLE10=She's Got The Rhythm (And I Got The Blues)
TTITLE11=Tonight I Climbed The Wall
TTITLE12=Chattahoochee
TTITLE13=Who Says You Can't Have It All
TTITLE14=Summertime Blues
TTITLE15=Livin' On Love
TTITLE16=Gone Country
TTITLE17=I Don't Even Know Your Name
TTITLE18=Tall, Tall Trees
EXTD=
EXTT0=
EXTT1=
EXTT2=
EXTT3=
EXTT4=
EXTT5=
EXTT6=
EXTT7=
EXTT8=
EXTT9=
EXTT10=
EXTT11=
EXTT12=
EXTT13=
EXTT14=
EXTT15=
EXTT16=
EXTT17=
EXTT18=
PLAYORDER=
